<svg xmlns="http://www.w3.org/2000/svg" viewBox="0 0 512 512"><title>network-handdrawn</title><g style="isolation:isolate"><g id="Layer_1" data-name="Layer 1"><path d="M199.45,87.5c4.39,7.62,107.7-75,113.16-65.49,2.64,4.59-73,57.16-69.94,62.51C245.85,90,334.87,22,338.84,28.86c2.67,4.64-60.83,49.7-58.35,54,2.7,4.7,79.84-53.29,82.9-48,2.77,4.82-66.05,54.18-63.21,59.13,2.73,4.75,88.49-58.65,91.7-53.07s-60,51.67-57.11,56.72c2.44,4.23,60-40.83,62.65-36.26,2.43,4.21-39.38,40.25-37.54,43.44,3.23,5.6,52.17-35.18,54.33-31.44,2.93,5.09-58.58,49.66-55.59,54.85,2.09,3.63,72.44-48.6,75.33-43.6,2.36,4.1-57.35,50-54.28,55.3,2.72,4.73,72.42-46.91,74.58-43.16,3.46,6-65.12,53.14-62.27,58.09,2.36,4.1,69.57-46.76,72.38-41.89,2.95,5.12-54.46,49.21-51.87,53.71,3.11,5.4,54.71-38.82,57.8-33.45,2.88,5-59.08,47.73-56,53.09,2.45,4.26,68.12-45.54,70.76-41,3.19,5.55-74.09,57.53-70.32,64.07,2.74,4.76,74.61-48.21,76.78-44.44,3,5.25-71.18,52.5-67.66,58.61,2.2,3.82,61.11-42.52,64.2-37.16,3.5,6.08-66.31,50.68-63.78,55.08s73.24-48.36,75.82-43.88" fill="none" stroke="#000" stroke-linecap="round" stroke-linejoin="round" stroke-width="6.97"/><path d="M295.78,147.82c2,3.5,57.38-39,59.87-34.65,1.94,3.37-41.33,39.54-39.3,43.06s47.22-31.14,48.87-28.28c1.89,3.29-42.53,39.56-40.49,43.1,1.71,3,49.25-32.08,50.79-29.4s-39.47,38.71-37.27,42.53,58.94-37.65,60.47-35c2.21,3.84-41.53,37.21-39.41,40.89,1.52,2.64,45.36-30.55,47.22-27.33,2.18,3.78-38.05,35.6-36.32,38.61,2.19,3.8,29.31-21.86,31.42-18.19,2.65,4.6-45.38,41.7-42.81,46.18,2.11,3.66,61-39,62.63-36.25,2.54,4.41-56.31,49.31-54,53.29,1.67,2.91,41.24-29.38,43.62-25.24,2.24,3.9-43.1,40.5-41,44.08s47.23-31.34,49-28.34" fill="none" stroke="#000" stroke-linecap="round" stroke-linejoin="round" stroke-width="6.97"/><path d="M208.67,321.62c5.82,10.11,127.94-90.62,135.1-78.19,5.75,10-125.87,78.73-120.37,88.27,5.86,10.18,121.26-82.61,126.63-73.29,4.11,7.13-112.55,72.43-107.45,81.29,4.35,7.55,94.14-66.08,99.15-57.38,4,7-81.14,59.3-78.11,64.57,2,3.43,56.92-37.38,58.84-34.05.93,1.61-6.63,22.21-5.68,23.85.16.27,4.73-3.24,4.94-2.86" fill="none" stroke="#000" stroke-linecap="round" stroke-linejoin="round" stroke-width="6.97"/><path d="M249.83,122.93c2.13,3.69,55.79-36.29,57.52-33.29,1.55,2.69-34.05,39.82-32,43.45,1.55,2.68,53.92-36.58,56.24-32.55,1.8,3.13-46.71,39.62-44.14,44.08,2.33,4,60.49-40.13,62.7-36.29,3,5.27-66.69,49.38-63.67,54.62.22.38,14.09-8.84,14.38-8.32" fill="none" stroke="#000" stroke-linecap="round" stroke-linejoin="round" stroke-width="6.97"/><path d="M219.66,146c.37.65,8.1-5.41,8.41-4.87.88,1.53-5.22,23.81-4.16,25.65.19.34,8.54-5.4,8.74-5.06,3.58,6.22-66.71,50.79-64.21,55.13,2.64,4.59,66-42.91,68-39.36,3.14,5.45-74.92,58.24-70.88,65.26,4.48,7.78,98.41-65.34,102-59.05,4.87,8.46-111.47,77-105.83,86.77,6.83,11.85,152.41-99.35,157.22-91,6.35,11-141.56,89.76-135.74,99.86,7.22,12.54,145.7-97.47,151.38-87.61,6.81,11.82-142.52,86.88-136.83,96.76,4.76,8.27,139-93.12,144.5-83.63C350.39,218.93,183,307.59,189,318.11c6.55,11.37,144.48-98.06,150.72-87.23" fill="none" stroke="#000" stroke-linecap="round" stroke-linejoin="round" stroke-width="6.97"/><path d="M85,264c2.77,4.82,65-43,67.34-39,3,5.13-56.24,49.21-54.14,52.86,2.3,4,51.09-35.39,53.61-31,3.14,5.45-55.38,51.66-52.85,56,2.43,4.22,41.05-29.32,43.45-25.15,1.79,3.1-42.83,42.72-40.79,46.26,1.2,2.08,30.54-20.77,31.87-18.45,1.58,2.74-30,32.81-28.08,36.18,1.09,1.89,23.72-15.74,24.59-14.23,1,1.7-3.41,25-2.47,26.66,1.28,2.23,23.19-15.57,24.12-14s-9.65,27.35-8.53,29.29c2.43,4.21,35-25.71,37.38-21.64,1.81,3.15-41.23,41.34-39,45.21,2,3.53,58.28-39,60.55-35,2,3.46-34.21,36.82-32.29,40.15,2.87,5,63.77-43,66.38-38.42,2.76,4.8-58.6,46.72-55.4,52.26,3.59,6.23,82.66-55.3,85.88-49.7,3,5.17-56.82,48.89-54,53.83,4.46,7.75,112.56-76,117.23-67.85,4.3,7.47-86.46,65.85-82.44,72.82,6.43,11.17,149.79-102.5,156.62-90.65,5.41,9.4-143,88-136.79,98.7,5,8.64,111.24-75.38,116-67.13" fill="none" stroke="#000" stroke-linecap="round" stroke-linejoin="round" stroke-width="6.97"/><path d="M348.36,280.66c.35.61,1.35-1.86,1.81-1s13.94,10.48,14.48,11.43c2.39,4.16,43.38-29.36,45.22-26.17,2.1,3.65-33.63,39.87-31.69,43.24,1.17,2,28.09-19.73,29.59-17.13,1.85,3.21-29.08,33.75-27.29,36.85,1.08,1.88,29.8-19.82,30.91-17.89" fill="none" stroke="#000" stroke-linecap="round" stroke-linejoin="round" stroke-width="6.97"/><path d="M418.08,262c2.62,4.54,81.91-55.35,85.34-49.39,3.14,5.46-73,53.64-70.11,58.67,2.45,4.25,57-40.08,60-34.75C497.22,243.24,413,298,417.07,305c2.62,4.55,85.49-55.71,88.18-51,4,6.93-87.7,62.66-84.44,68.33,3.67,6.37,74.61-51.1,78-45.16,4.23,7.35-105.11,76.61-101.18,83.44,4.15,7.21,94.84-64.49,99-57.29" fill="none" stroke="#000" stroke-linecap="round" stroke-linejoin="round" stroke-width="6.97"/><path d="M160.15,119.32c1.58,2.74,32.72-23.68,34.77-20.12,4.56,7.92-91.33,68.32-87.45,75.06,5.79,10,143.55-94.5,148.48-85.94,6.75,11.73-156,102-150.76,111C112.39,211.84,284.77,74.11,294,90.08,301.64,103.4,93.34,204.72,101.7,219.23c2.9,5,64.68-46,68.38-39.58,3,5.13-75.38,56.07-72.41,61.21,2.4,4.16,47-33.38,49.69-28.76" fill="none" stroke="#000" stroke-linecap="round" stroke-linejoin="round" stroke-width="6.97"/><path d="M105.27,62c2,3.52,60.59-39.06,62.31-36.06,4.17,7.25-115.4,77.94-110.4,86.63C65,126.07,222.1.45,229.3,13c8.2,14.24-202.37,123.15-195,136C43.79,165.37,257.76-3.51,267.77,13.88c8.46,14.69-249.08,140.54-237,161.51,13.84,24,260.9-176.08,271.74-157.27C312.57,35.58,12,182.83,22.91,201.72c4,6.88,96.32-67.07,101.21-58.58,4.38,7.61-111.83,77.57-106.65,86.55C21.31,236.36,87.7,181.5,91,187.16c3.11,5.39-74.47,55.34-71.44,60.58,3.43,6,60.93-41.61,63.67-36.85,3.77,6.55-67.74,56.37-65.11,60.93s60.42-42.68,63.75-36.9S20,285.75,23.24,291.45c2.63,4.57,63.85-45.68,67.62-39.14,2.86,5-72.93,56.42-70.15,61.24,3.35,5.81,67.76-45,70.26-40.67,2.85,4.94-69.34,56.23-65.88,62.24,2.63,4.56,62.23-41.66,64.66-37.42,3.48,6-68.12,50.51-64.95,56,2.92,5.07,60.92-41.64,63.68-36.85S37.36,364.11,39.6,368c2.73,4.73,66.85-43.93,69.11-40,2.9,5-52.3,50.09-50,54.08,2.51,4.37,59.41-39,61.42-35.55,3.42,5.93-66.29,50.15-63.53,54.95,2.29,4,54.72-36.57,56.84-32.9,2.32,4-38.85,39.28-36.72,43,2.33,4,47-32.76,49.38-28.58,2,3.39-40.94,42.58-39.21,45.57,2.09,3.64,60-40.45,62.48-36.16,2.32,4-49,43.84-46.67,47.93,2.69,4.66,66.26-45,69.12-40,3.48,6-69.9,51.44-66.46,57.42,2.28,4,65.35-44,68-39.37,2,3.54-42.15,41.69-40.43,44.67,3.28,5.69,75-51,78.26-45.3S146.6,468.4,149.83,474c3.8,6.6,72.13-49.83,75.62-43.77,2.73,4.75-50.64,47.21-48,51.73,4.48,7.77,78-54.51,82-47.48,2.71,4.7-70.25,57.77-67.41,62.7,14.31,24.84,281.54-187.09,292-169,11.68,20.29-268.07,151-257.64,169.13,10.17,17.66,243.77-160.89,252.33-146,7.94,13.79-234.75,136.13-225,153,8.5,14.76,197.9-134.23,206.41-119.46,6.28,10.91-149.65,95.86-144.1,105.49,4.48,7.78,124.75-82.42,129.16-74.75" fill="none" stroke="#000" stroke-linecap="round" stroke-linejoin="round" stroke-width="6.97"/><g opacity="0.8"><path d="M198.42,88.1c4.74,8.23,105.89-74,111.39-64.47,2,3.49-49.49,48.11-46.51,53.27,3.46,6,80.93-54.42,84.2-48.73,2,3.43-52.21,46.34-49.5,51,3.1,5.38,62.5-42.77,65.35-37.82,2.22,3.85-45.93,43.87-43.18,48.65,3.24,5.63,75.16-49,77.53-44.87S339.89,99.6,343,104.94c3.25,5.64,61.19-41.85,64-37,2.26,3.93-52.11,49.4-49.64,53.68s69.34-46.93,72.28-41.83c3.14,5.46-53.64,50.43-50.73,55.5,2.35,4.07,55.17-37.63,57.63-33.35,1.87,3.24-46.57,47.44-44.31,51.37,2.36,4.1,53.8-37.59,56.59-32.75,2.51,4.35-52.88,45.79-50.47,50,3.08,5.34,63-42.62,65.69-38,2.25,3.91-45.59,45.87-43.1,50.18,2.13,3.69,54.76-37.72,57.36-33.2,3.47,6-59.3,55.59-56.71,60.08,3.17,5.5,60.69-41.49,63.44-36.72,3.12,5.41-68.52,54.79-64.84,61.2,2.39,4.15,73.82-48.11,76.15-44.07" fill="none" stroke="#000" stroke-linecap="round" stroke-linejoin="round" stroke-width="6.97"/><path d="M294.75,148.41c2.16,3.76,55.59-38,58.1-33.63,2,3.52-39.95,43.7-38.2,46.75,2.16,3.74,55.45-37.13,57.63-33.35s-36.2,37.64-34,41.49c2,3.41,50.62-34.52,52.87-30.6,1.73,3-38.58,40-36.69,43.3,1.75,3,45.82-30.74,47.64-27.57s-42.35,41.52-40,45.65c2.11,3.66,48.26-32.56,50.26-29.09,2.16,3.74-54.12,46.39-51.63,50.69,1.7,3,49.55-33.16,51.49-29.8s-44.48,44.42-41.81,49.05c1.56,2.7,45.13-31.16,47.3-27.38s-51.88,47.43-49.09,52.27c2.41,4.18,45.18-31.17,47.35-27.4" fill="none" stroke="#000" stroke-linecap="round" stroke-linejoin="round" stroke-width="6.97"/><path d="M207.64,322.21C213.87,333,336.29,236.93,341,245c5.8,10.07-123.08,83.41-118.44,91.47,6.22,10.79,126.86-83.58,131.25-76,5.58,9.69-115.66,78.5-111.47,85.77,3.26,5.66,77.56-52.15,80.7-46.71,1.77,3.08-26.16,31.75-24.49,34.65.82,1.42,23.18-16.2,24.38-14.11.62,1.08,4.84,20.1,5.75,21.67.25.43.6-.95.86-.5" fill="none" stroke="#000" stroke-linecap="round" stroke-linejoin="round" stroke-width="6.97"/><path d="M248.8,123.52c2.27,3.93,54-35.3,55.75-32.26,1.08,1.87-20.08,30-18.85,32.12,1.72,3,44.47-30.32,46.45-26.88,2.09,3.63-37.72,38.32-35.91,41.47,2.62,4.54,44.32-30.48,46.41-26.86,2.79,4.84-50.39,51-48.18,54.82.38.66,4.09-3.12,4.41-2.55" fill="none" stroke="#000" stroke-linecap="round" stroke-linejoin="round" stroke-width="6.97"/><path d="M219.66,146c.4.69,8.09-5.41,8.41-4.87,2.16,3.75-41.12,46.23-38.9,50.08,1.51,2.61,29.83-20,31-17.94,2.75,4.77-52.2,52-49.46,56.81,2.6,4.52,69.79-46.38,72.38-41.89,3.87,6.72-88,66.85-83.92,73.92,5.16,9,145.14-98.36,151.34-87.59,7.71,13.38-159.57,101.89-154.23,111.15,6.64,11.53,165.91-109.16,171.59-99.31,7.58,13.15-153.61,98.08-147,109.6,5.34,9.28,143.65-94.36,148.5-85.94,5,8.68-140.58,89-134.81,99,5.42,9.42,138.87-96.92,146-84.51,7.67,13.32-165.92,99.74-158,113.43.4.69,11.41-7.43,11.76-6.81" fill="none" stroke="#000" stroke-linecap="round" stroke-linejoin="round" stroke-width="6.97"/><path d="M84,264.6c1.91,3.32,63.2-42.06,65.57-37.95,3.16,5.49-58.78,53-55.8,58.14,2.51,4.36,42-29.27,44.14-25.55,2.49,4.32-48.92,49.38-46.09,54.29,2.15,3.73,70.39-47,73.1-42.31,2.83,4.91-70.48,55.59-66.61,62.31,1.27,2.21,33.18-21.3,34.09-19.73,1.77,3.08-25.19,35.9-23.88,38.19,1,1.7,26.7-17.63,27.64-16,1.47,2.55-20.28,29-18.94,31.36,1.11,1.92,45.76-29.84,47.21-27.32,1.66,2.88-26,38.7-24.19,41.81s56-37.24,58.13-33.64c2.92,5.06-48.16,47.4-46,51.11,2.86,5,62-40.37,63.92-37s-41.38,39.05-39.18,42.86c2.67,4.63,61.61-41.74,64.24-37.18,2.09,3.62-48.93,45.38-46.91,48.89,2.93,5.08,97.47-63.77,100.65-58.25,2.64,4.58-71.56,56.41-68.92,61,5.73,9.94,121.86-81.53,126.61-73.28,4.59,8-89.46,67.15-85.13,74.68s119-82.22,124.79-72.22c2.91,5.06-74.91,55.57-71.29,61.86,1.49,2.59,27.11-19.52,28.76-16.65" fill="none" stroke="#000" stroke-linecap="round" stroke-linejoin="round" stroke-width="6.97"/><path d="M347.33,281.26c.38.67-.43-.85,0,0,.64,1.11,14.5,13.79,15.34,15.25,1.63,2.82,49-33.54,51.22-29.64,1.63,2.84-26.87,39.42-25.5,41.81s28.64-19.69,30-17.35" fill="none" stroke="#000" stroke-linecap="round" stroke-linejoin="round" stroke-width="6.97"/><path d="M417.05,262.6c2.83,4.91,80.12-54.38,83.58-48.37,3.37,5.85-76.76,57.63-72.78,64.54,2.78,4.83,67.39-45.16,70-40.54,3.22,5.59-76.93,63.66-73.76,69.17s72-47.79,74.68-43.22c4.42,7.67-93.07,64-88.57,71.83,3,5.23,83.06-57.68,87.21-50.48,5.07,8.81-112.11,76.09-107.77,83.63,3.88,6.74,102.15-69.93,106.82-61.82" fill="none" stroke="#000" stroke-linecap="round" stroke-linejoin="round" stroke-width="6.97"/><path d="M159.12,119.91c1.7,2.95,30.93-22.69,33-19.1,3.64,6.32-71.19,56-68.64,60.43,6,10.41,123.88-85.82,130-75.23C259.37,96.28,90.1,190.79,96.88,202.56c8.23,14.3,180.2-124.58,189-109.36C294.12,107.58,87.31,218.5,94.5,231c3.1,5.38,62.77-42.26,65.33-37.81" fill="none" stroke="#000" stroke-linecap="round" stroke-linejoin="round" stroke-width="6.97"/><path d="M104.24,62.59c2.17,3.77,58.8-38.07,60.55-35,4.53,7.86-122,87.22-117.51,95.07,6,10.38,188.37-124.29,195-112.84C249.36,22.15,29.91,136.16,39.35,152.56c11.48,19.93,239.82-162.41,250-144.7S10.38,167.54,22.15,188c5.48,9.52,127.13-88.05,133.38-77.19,6.06,10.52-143.34,95.38-137.38,105.73,3.13,5.44,90.32-59.38,93.39-54,4.32,7.51-95.81,72.43-91,80.74,2.68,4.65,65.89-44.3,68.55-39.67,3.9,6.77-82.19,62.35-78.77,68.28,2.28,4,74.72-51.06,78.09-45.2,3.62,6.29-70.13,57.54-66.62,63.64s64.23-44,67.17-38.87S20.72,303.9,24.29,310.1c3.17,5.5,68.36-47,71.59-41.43,3.74,6.5-72.17,56.92-69.14,62.19,2.15,3.73,63.29-43.61,66.3-38.37S28.4,346.69,30.92,351.07c2.07,3.6,69.64-45.89,72.05-41.7,3.93,6.82-70.59,59.24-67,65.55,2.41,4.19,73.91-49.13,76.65-44.36,3.41,5.92-68.71,54.22-65.77,59.35C49,393.55,112,347.53,114,351.06c2.22,3.86-60.45,48.16-57.36,53.51,2,3.54,60.29-41.55,63.17-36.56,1.93,3.34-44.58,44.1-42.58,47.58,3,5.25,48.91-34.12,51.42-29.76,1.73,3-42.89,40.33-40.72,44.1,2.6,4.51,62.77-42.86,65.59-38,2.37,4.11-62.53,53-59,59.1,3,5.22,81.58-53.54,84.32-48.8,3.33,5.78-66.25,51-62.76,57,2.7,4.69,65.47-43.72,68-39.35,2.71,4.71-53.76,51.86-51,56.74,3.5,6.08,82.25-53.94,85-49.19,2.94,5.1-54.54,45-51.53,50.25,3.68,6.38,74.42-50.21,77.5-44.85s-55.4,50.54-52.35,55.83c5,8.69,97.89-68.49,103-59.61,4,6.89-88.38,66.53-84,74.11,10,17.36,258-177.44,270.12-156.33,11,19.09-239.55,144.4-231.78,157.9,7.08,12.29,204-141.27,214.06-123.89,7.36,12.78-156.81,103.32-150.78,113.79,5.5,9.54,122-82,126.93-73.46" fill="none" stroke="#000" stroke-linecap="round" stroke-linejoin="round" stroke-width="6.97"/></g><g opacity="0.7" style="mix-blend-mode:multiply"><path d="M256.07,11.43c-5.16,0-10.47-3.77-15.55-3.45S230.1,8.88,225,9.52s-9.83,4.23-14.85,5.19S199.94,16,195,17.32s-9.08,5.43-13.94,7-9.47,3.6-14.23,5.48-11.29-.24-15.91,1.95-9.29,4.68-13.78,7.15-8.73,5.64-13,8.39-9,5.16-13.19,8.18S105.91,65.76,102,69,94.6,75.9,90.86,79.42s-8.59,5.7-12.11,9.45-5.6,8.56-8.87,12.52-10.22,5-13.24,9.16S53.78,121,51,125.34s-6.37,8.06-8.84,12.57-6.21,8.35-8.4,13-4.73,9.21-6.62,14-.1,10.84-1.69,15.74S21.29,190,20,195s-4.41,9.52-5.37,14.59,1.38,10.55.74,15.68-3.3,9.92-3.62,15.08S8.08,250.6,8.08,255.78s2,10.4,2.29,15.5,2.2,10.19,2.83,15.26-1.64,10.79-.69,15.82,2.59,10.16,3.86,15.12,3,10,4.54,14.9,4.46,9.46,6.34,14.22,6,8.63,8.16,13.27,4.66,9.09,7.13,13.59,6.44,8,9.19,12.32,4.41,9.28,7.42,13.43,5.34,8.79,8.61,12.75,6.88,7.58,10.39,11.32,4.39,10.24,8.13,13.76,8.62,6,12.57,9.27,10.61,3,14.76,6.06,6,9.36,10.35,12.12,8.76,5.56,13.26,8,11,.92,15.66,3.11,8.58,5.7,13.36,7.6,8.7,6.17,13.59,7.76,11.05-1.47,16-.19,8.71,8,13.77,9,11-4.42,16.15-3.77,9.93,1.54,15.08,1.86,10,1.52,15.2,1.52,10.38,3.18,15.47,2.86,9.76-5.59,14.81-6.22,10.56,1.67,15.57.71,10.95,1.4,15.89.13,8.88-6.62,13.73-8.2,9.86-2.86,14.62-4.75,8.2-6.65,12.83-8.84,10.86-1.13,15.35-3.61,9-5,13.34-7.77,7.77-6.85,11.91-9.87,9.76-4.23,13.71-7.51,5.36-9.46,9.09-13,6.12-8.17,9.63-11.91,8.22-6.23,11.49-10.19,6-8.2,9-12.35S462.29,393,465,388.71s3-10.23,5.51-14.74,7.42-7.83,9.61-12.49,2.35-10.29,4.25-15.08,5.2-9.14,6.79-14,1.23-10.42,2.51-15.42,3.5-9.79,4.46-14.87,3.45-10,4.09-15.12.34-10.45.66-15.61-5-10.39-5-15.57.94-10.2.63-15.3S500,230,499.42,225s-4.18-9.72-5.13-14.74.29-10.55-1-15.51-3.61-9.65-5.18-14.52-3.52-9.61-5.41-14.37-5.08-8.89-7.26-13.53-4.65-9-7.11-13.49-.87-11.43-3.62-15.76-7.09-7.71-10.11-11.86-7.86-6.86-11.13-10.82-7.24-7.14-10.75-10.88-7.67-6.6-11.4-10.12-4.66-10.12-8.61-13.4S405.13,58.86,401,55.83s-10.76-2.37-15.09-5.14-7.25-7.75-11.74-10.23-9-5.06-13.6-7.26-9.26-4.49-14-6.39-9-5.58-13.89-7.17-11.28,2.13-16.27.85-9.92-1.7-15-2.67-9.16-7.48-14.28-8.12-10.69,4.71-15.84,4.39S261.24,11.43,256.07,11.43ZM82,252.57c-3-.61,3.17-3.17,3.31-6.89.14-.83,0-2.2.18-3.17,0-1.24-2.6-3.07-2.6-4.17.21-1.65,1.1-3.22,1.24-4.74s-2.33-4-2.05-5.89c.14-1-.09-2,0-3.1.27-.83,5-.71,5-1.81.41-2.34.71-4,1.26-6.35s.41-4.61,1-6.81c.55-2.48,1.94-4.44,2.7-7.33,1.56-5.09-1.33-12.37,1.1-18,2.17-5.07,4.43-10.77,7.32-16,2.13-4,6.22-7.12,8.79-11,2.47-3.75,3.94-8.55,6.82-12.27,2.74-3.54,9.39-4,12.49-7.52,4.95-5.1,7.75-13.28,13.59-18,3-2.62,6.87-4.06,10-6.4,1.58-1,4.14-1.18,5.72-2,1.27-.88,1.35-.64,2.65-1.46,1.12-.71-.66-3.62.47-4.3,4.51-3,9.89-4.75,14.73-7.29s10.62-2.9,15.71-4.92,9.21-6.76,14.49-8.26c4-1.18,8.65-.09,12.77-1s8.68,1.59,12.81,1,7.92-2.72,12.11-2.92,8.3-1.72,12.46-1.92c4.4.41,8.11,3.55,12.23,4,2.2,0,4.3-.09,6.36-.09,3.14.36,3,.23,6.17.73,4,.69,8.2.32,12.25,1.23s8.63-.21,12.55,1c5.14,1.72,10.35,3.5,15.27,5.63s10.72,3.11,15.43,5.66,8.84,6.69,13.26,9.68c1.11.72.66,1.45,1.74,2.23,1.23.88,1.28.79,2.52,1.66,1.58.82,1,5.61,2.63,6.44,3,2.34,6.55,3.37,9.3,6.13,5.63,5,13.8,7.23,18.47,12.74,3,3.37,2.66,9.49,5.31,13s5,7.33,7.37,11.07c2.43,3.91,8.43,5.68,10.43,9.55,2.74,5.23,3.65,11.21,5.64,16.21,2.2,5.53,1.41,11.68,2.82,16.82.69,2.76,6,3.87,6.52,6.22s-4.6,5.4-4.19,7.61,6.9,3.23,7.1,5.57a11.8,11.8,0,0,1,.13,2.83c.14.83-.91,1.78-.64,2.75.21,1.79-2.89,3.75-2.75,5.54.14,1.38,5.07,3,5.14,4.47s-2.92,2.69-2.92,3.66c0,1.38-3.58,2.39-3.58,3.21.07,4.27,6.54,6.6,3.51,6.6s-.16-2.38-.16-6.65c-.07-.83-3.05-1.61-3.19-3,0-1,3.56-2.45,3.42-3.83s0-3.35-.22-4.72c-.21-1.79-1.9-3.11-2.11-4.9-.21-1,2.17-2.41,2-3.24-.21-1.1-3.88-1.13-4-1.82-.55-2.34-2.37-3.9-2.72-6.24-.62-1.79.68-4.54.2-6.88-.69-2.34-1.69-4.32-2.45-6.67-1.58-5,.83-12-1.47-17.39-2.11-5-7.08-8.95-9.87-14-2.06-3.84-1.89-9.25-4.35-13s-6.73-6.19-9.48-9.76-4.33-8-7.35-11.35c-4.81-5.37-11.42-9.26-17.05-13.95-2.82-2.21-5.13-5.48-8.08-7.69-1.58-1.1-2.14-3.71-3.58-4.81-1.23-.91-1.82-.46-3.11-1.27s-4.1,4.14-5.26,3.44c-4.36-2.85-8.23-6.34-12.94-8.74s-8.43-6.57-13.35-8.53-10.63-1-15.67-2.59c-3.86-1.11-7.09-4.32-11-5.11s-8-.54-12-1.22c-3-.33-3.09.13-6.13-.18-1.92-.41-4.08.88-6.14.88-3.92-.69-8-.46-12-.46s-8.29-4.63-12.3-4.26-7.91,2.56-11.91,3c-4,.75-7.51,3.7-11.38,4.6s-7.45,2.74-11.31,3.85c-5,1.66-9.2,4.3-13.91,6.35s-11.27.42-15.78,2.87-9.53,4.55-13.79,7.36c-1.13.69,1.09,4.06,0,4.81s-2.67-1.27-3.86-.38c-1.58,1-3.25,2.13-4.76,3.09-2.89,2.34-5.92,4.51-8.73,6.72-5.43,5.1-11.89,8.91-16.56,14-2.88,3.38-1.47,10.17-4,13.59s-4.42,7.31-6.68,11-9.46,4.64-11.37,8.52c-2.62,4.92.44,12.33-1.5,17.23-2.12,5.39-8.47,9-9.84,13.82-.62,2.21-2.48,4.33-3.09,6.67-.41,1.93,4.71,5.33,4.22,7.67-.27,1.79-2.85,3.29-3.12,5.5-.14.83-2.34,1.57-2.55,2.39s4.31,2.5,4.31,3.05c-.21,1.65-2.2,3.39-2.41,4.77,0,1.52-3.09,3-3.09,4.5-.14,1-1.24,2.21-1.24,3.18-.07,1.38.16,2.38.09,3.21,0,4.27,4.64,4.29,2.09,5.92C88.6,254.62,87.64,253.73,82,252.57ZM223.37,169c-4.74,2-11.77,1.5-16.06,4.23a97.23,97.23,0,0,0-12.51,9.64c-3.8,3.42-5.43,9.26-8.61,13.27s-6.68,7.9-9.15,12.4-1.93,10.19-3.63,15.06A87,87,0,0,0,170,238.2c-.84,5-5.79,9.68-5.79,14.89,0,7.72,1.6,13.76,3.45,20.65a33.59,33.59,0,0,0-20.18,3.2c-1-4.16.35-7.08-.12-11.32s-5.87-8.2-5.87-12.52a121.46,121.46,0,0,1,.66-16c.71-5.19,3.7-10.23,5.09-15.18s1.76-10.77,3.82-15.5,8.82-7.23,11.52-11.64,2.75-10.81,6-14.82,7.84-7.12,11.63-10.65,8.81-5.57,13.05-8.56,8.81-5.14,13.43-7.51,9.07-8,14-9.67c-.62,2.34-.05,7.44-.05,10.33A43,43,0,0,0,223.37,169ZM146.82,284.44c5.1-2.92,11.2-.52,16.74-.5a27.28,27.28,0,0,1,14.83,3.89c4.77,2.75,10.3,4.33,13.26,9.48s3.5,10.74,3.5,16.24c0,5.71,1.07,12.35-1.74,17.25a35.68,35.68,0,0,1-12.52,12.81c-5.14,3-11.93.24-17.45.25a28.15,28.15,0,0,1-15.23-4.07c-4.77-2.8-8.63-5.84-11.59-11s-3.49-9.87-3.45-15.42-3.2-12.79-.32-17.73C135.61,290.9,141.71,287.41,146.82,284.44Zm53.1,39.14c4,3.33,7.42,9.68,12,12.22a93.67,93.67,0,0,0,14.7,6.5c4.86,1.69,10.83.3,16,1.15s10.24,2,15.52,2c4.89,0,9.37-3.19,14-3.91a86.09,86.09,0,0,0,13.6-3.55c4.61-1.49,10.76.88,15-1.3s6.23-5,10.1-7.8c2.13,7,6,12.07,11.95,17.17-3.83,2.74-7.41,2.91-11.56,5.18s-6.24,9-10.65,10.72a119,119,0,0,1-13.69,4.88c-4.52,1.16-9.81.23-14.53.82s-9.51,2.51-14.29,2.51c-5.07,0-9.84-5.18-14.74-5.82s-10.65,1.95-15.43.66-9.38-4.15-14-6.07-8.39-5.61-12.68-8.14a92.13,92.13,0,0,1-11.46-7.46C195.6,338.11,197.86,330.61,199.92,323.58ZM224.65,153.9c0-5.94,5.12-10.09,7.87-14.92a27.73,27.73,0,0,1,10.74-11.1C248,125,252.18,121,258.1,121s11.13,2.28,15.92,5.11,11.21,5.4,14,10.4A37.54,37.54,0,0,1,293,153.9c0,5.92-5.84,10.37-8.61,15.12a28.29,28.29,0,0,1-11.09,11.07c-4.77,2.71-9.28,4.53-15.19,4.53s-10.32-1.95-15.09-4.67c-4.93-2.82-12.73-3.45-15.58-8.35S224.65,159.81,224.65,153.9Zm71-9c4.92,1.71,8.51,7.36,13.09,9.71a106.33,106.33,0,0,1,13,7.75c4.24,3,9.88,4,13.67,7.49s6.74,7.81,10,11.83,8.62,6.68,11.33,11.12a118.29,118.29,0,0,1,7.6,13.92c2.06,4.73-.46,11.16,1,16.19a109,109,0,0,1,3.19,14.93c.7,5.08,1.58,10,1.58,15.24,0,4.89-1,9.52-1.56,14.31s1,13-.19,17.61c-6.8-3.58-16.48-5.16-23.55-5.16a137.13,137.13,0,0,0,2.7-14.94c.53-3.93-.82-7.78-.82-11.82,0-5.2,4.39-10.59,3.55-15.57s-5.67-9.13-7.33-13.92-2.59-9.83-5-14.29-4-9.65-7.17-13.65-6.43-8.25-10.21-11.67-10-3.51-14.36-6.26-8.59-6.69-13.32-8.67c1.93-4.82,4.81-10.21,4.81-15.17C297.62,151,296.3,147.24,295.68,144.9Zm24.14,154.25c2.94-5.17,9.4-6.16,14.17-8.91a27.24,27.24,0,0,1,14.79-4.05c5.53,0,11.13-1.43,16.24,1.49s8.44,7.56,11.19,12.38,7.07,10.22,7.09,15.93A37,37,0,0,1,379,333.51c-3,5.07-10.27,6-15.1,8.73a28.64,28.64,0,0,1-15.18,4.07c-5.5,0-10.33-.72-15.43-3.75s-8-6.79-10.73-11.59-9.21-9.43-9.21-15.12C313.34,310.35,316.87,304.26,319.82,299.15Zm110.89-29.5c0,1.38-4.19,2.51-4.33,3.75-.07,1.52-.25,3-.25,4.93s2.32,3.27,2,5.61c-.07.41-1,1.68-1.09,2.65s2.32,2.06,2.12,3c-.27,2.34-.45,4.44-.87,6.78s-5.47,3.57-6,5.92-1.25,4.58-1.94,6.78c-1.64,5.29-3,10.86-5.4,16.49-2.19,5.23-5.25,10.05-8.16,15.29-2.13,3.89,0,10.55-2.62,14.47-2.45,3.74-4.91,7.94-7.78,11.62s-7.29,6-10.46,9.35c-4.88,5.51-9.23,11.94-15.2,16.9-2.75,2.76-9.13,1-12.08,3.88-1.65.83-1,4.49-2.56,6-1.15,1-2,.05-3.24.89s-2.12-.59-3.34.19c-4.53,2.94-9.41,5.14-14.29,7.63S327,419.94,321.87,422s-10.71,2.61-16,4.14c-3.91,1.18-8.47.09-12.59.91s-7.66,4.61-11.75,5.29c-4.17.48-8.66-1.36-12.86-1.13s-8.38-2.89-12.59-2.89-8.06,1.83-12.32,1.41c-2.06-.41-4.44,1-6.5,1-3.11-.42-2.57-3.68-5.67-4.2-4.09-.62-8.08-.89-12.13-1.87a121.39,121.39,0,0,1-11.86-3.28c-5.18-1.46-10.49-2.11-15.44-4.19s-10.77-2.45-15.46-5-9.49-5.3-13.91-8.27c-1.15-.71-2.23.86-3.35.11s-.34-2.25-1.58-3.12c-1.58-.83-2.54-3.18-4.19-4.42-3-2.48-6.12-4.58-8.87-6.79-5.7-5-7.92-12.85-12.59-18.36-3-3.48-6.72-6-9.33-9.49-2.74-3.68-8.81-4.93-11.16-8.59-2.48-3.88-1.15-9.86-3.18-13.68-2.7-5.28-4.82-10.35-6.81-15.37-2.23-5.6-8.18-9.65-9.63-14.74-.62-2.76.14-5.42-.34-7.76s1.65-5.26,1.24-7.05c-.48-2.21-5.26-3.3-5.68-5.78-.07-.69,5.35-2.41,5.28-3.38s-6.47-1.12-6.61-2.09c-.14-1.79,0-3.86-.11-5.1-.14-1.93.83-3.58.76-5s3.06-2.75,3.06-3.72c-.14-1.38-4.94-2.25-4.94-3.22,0-4.13.16-6.19,3.19-6.19s-3.38,2.16-3.24,6.29c0,1,4.17,1.78,4.3,3.16.07,1-.35,2.25-.35,3.63.21,1.38,3.16,2.43,3.5,4.36.14,1.24-3.32,3.72-3.12,5.51.14,1,.15,2,.36,2.82s1.67,1.62,1.88,2.31c.48,1.93-1.73,5-1.18,6.69.48,2.34,4.62,3.95,5.1,6.15s2.87,4,3.55,6.44c1.58,5,1.63,10.72,3.93,16.15a164.86,164.86,0,0,0,7.65,14.77c2,3.83.35,10,2.84,13.78,2.38,3.6,7.27,5.63,10.05,9.19,2.66,3.39,3.37,8.76,6.37,12.14,4.81,5,11.47,8.82,17.25,13.92,2.75,2.21,4.8,5.74,7.76,8.08,1.51,1.1,4.25.44,5.76,1.82,1.14.84.62,1.7,1.8,2.48s.25,2.28,1.47,3.08c4.39,2.81,9.64,4.88,14.36,7.26s11.65-.53,16.58,1.42,9.25,4.63,14.32,6.2c3.78,1.25,7,4.36,11,5.14s8.23-1.35,12.19-.6c3,.35,2.8,2.45,5.84,2.81,2,.55,4.06-.39,6-.39a117.45,117.45,0,0,0,12.08.18c4-.21,7.93-1.74,12-2.1s7.87-1,11.86-1.72,8.86,3.45,12.78,2.58,7.48-3.57,11.29-4.94c5-1.49,9.06-5.26,13.79-7.21s8.93-4.92,13.44-7.32,8.23-5.69,12.48-8.49c1.23-.88,3.65,2.49,4.87,1.59s1.67-.07,2.79-.89c1.58-1.38.41-5.51,1.85-6.34,2.82-2.89,7.61-2.57,10.29-5.33a181.89,181.89,0,0,0,15.27-14.58c2.84-3.39,5.77-6.69,8.27-10.11,2.63-3.59,6.82-6.15,9.07-9.71,2.39-3.8-.06-10.24,1.88-13.93,2.61-5.1,4.1-10.15,6-15.07,2.11-5.45,9.28-8.81,10.69-13.73.76-2.2-4.27-5.87-3.79-8.21s5.84-3.12,6.25-5.46c.41-1.93,1.76-3.93,2.24-5.58.14-1-5.42-2.92-5.22-3.75,0-1,2.46-1.67,2.46-2.63.27-1.79,2.5-3,2.64-4.5.14-1.79-4.34-3.37-4.27-4.61,0-1.52,1.93-2.26,1.93-3.78,0-.83,2.89-2.3,2.89-3.12.14-3.72-3.91-3.21-.93-3.71,5.66-1,5-1.12,10.54.23,2.94.71.26.12.26,3.84C429.55,267.27,430.77,268.27,430.71,269.65Z" fill="none" stroke="#000" stroke-linecap="round" stroke-linejoin="round" stroke-width="9.88"/></g><g opacity="0.8" style="mix-blend-mode:multiply"><path d="M256.07,8.11c-6.15,0-12.54-1.35-18.58-.9s-11.36,8.74-17.35,9.63-12.45-.87-18.37.47-12.64.25-18.45,2S173.82,29,168.16,31.23s-12,2.49-17.49,5.14-12.71,2.12-18,5.18-11.31,5.35-16.34,8.8-10,7.4-14.79,11.22-7.7,10-12.17,14.15-8.26,9-12.41,13.5-7.31,9.74-11.12,14.52S55.49,111.28,52,116.34s-8.2,9.53-11.27,14.84-1.6,13.1-4.25,18.62-2.8,11.91-5,17.63-8.62,9.82-10.42,15.69-2.12,12.1-3.48,18.1S12,212.67,11.06,218.75s-1.59,12.32-2,18.46S6.9,249.61,6.9,255.78s2,12.48,2.45,18.53.13,12.58,1,18.59,1.92,12.41,3.26,18.35,3.89,11.92,5.68,17.74,7.22,10.55,9.44,16.22,7.91,9.71,10.55,15.21,5.27,10.71,8.32,16S50.35,389,53.79,394s6.81,10.2,10.61,15,5.33,11.75,9.49,16.23,12.37,5,16.85,9.18,10,6.8,14.79,10.62,8.2,9.18,13.25,12.63,7.54,11.17,12.83,14.24,13.34,1.09,18.85,3.76,9.37,9.18,15.07,11.43,13.6-2.06,19.46-.25,9.91,10,15.89,11.41,13.21-4.5,19.28-3.59,11.56,4.52,17.69,5S249.92,504,256.07,504s12-6.5,18-6.95S286,495.43,292,494.53s11.73-2.24,17.65-3.58,13.83,4.47,19.64,2.67,12-3.7,17.61-5.93,8-12.11,13.51-14.76,11.6-3.66,16.88-6.72,13.91-.94,18.95-4.39,6.66-11.7,11.43-15.52,11.74-5.11,16.21-9.27,7.76-9.65,11.91-14.13,5.46-11.29,9.27-16.08S456.3,400,459.74,395s6.91-10.24,10-15.55,6-10.81,8.65-16.33,3.16-12,5.4-17.73,5-11.21,6.76-17.08.55-12.42,1.91-18.41,4.81-11.42,5.71-17.5-1.42-12.32-1-18.46,8.27-11.95,8.27-18.12-4.22-12.33-4.66-18.39,1.17-12.62.28-18.63-2.92-12.13-4.27-18.06-6.66-10.92-8.45-16.75-6.29-10.54-8.51-16.21-1.28-12.6-3.92-18.09-7.18-9.9-10.23-15.19-5.52-10.78-9-15.82-6-10.66-9.8-15.44-4.53-12.4-8.68-16.88S430,76.9,425.49,72.74s-12.4-4.53-17.17-8.35-7.47-10.61-12.52-14.07-12.88-2.56-18.17-5.63-10.71-5.54-16.22-8.21-11.58-3.41-17.27-5.65S333.57,24.77,327.72,23s-10.47-8.19-16.46-9.55-12.89,2.43-19,1.52-12.13,1.15-18.26.7S262.23,8.11,256.07,8.11ZM82.64,249.33c-3-.61,3.48.14,3.61-3.58.14-.83-7.48-2.67-7.35-3.64,0-1.24,3.13-2.72,3.13-3.82.21-1.65,3.12-3,3.26-4.55s-5.63-4.39-5.36-6.32c.14-1,2.51-1.59,2.65-2.7.27-.83,4.27-.84,4.34-1.95.41-2.34,2.05-3.73,2.6-6.07s.73-4.48,1.35-6.69c.55-2.48-1.37-5.34-.61-8.24,1.56-5.09,2.84-10.84,5.26-16.51,2.17-5.07,3.8-10.84,6.69-16.1,3.16-5.91,9.88-9.74,14-15.51,3.87-5.39,9.21-9.42,13.93-14.81,4.95-5.1,6.72-14.07,12.56-18.76,3-2.62,4.72-7,7.81-9.34,1.58-1,5.92,1.35,7.5.53,1.27-.88.37-2.18,1.67-3,1.12-.71,2.9,2.31,4,1.64a150.39,150.39,0,0,1,13.89-8.27c4.8-2.51,10-3.32,15.08-5.35S202,91,207.3,89.47c7.9-2.34,16-3,24.31-4.13s16.19-1,24.5-1.44c4.4.41,8.12-.51,12.25-.1,2.2,0,4.66-3.15,6.72-3.15,3.14.36,3.74-3.1,6.86-2.59a217.34,217.34,0,0,1,24.66,5.76c5.14,1.72,9,7.61,13.87,9.74s9.68,4.82,14.38,7.37,7.54,8.22,12,11.21c1.11.72,4.22-3.93,5.3-3.15,1.23.88,2-.28,3.26.59,1.58.82,1.92,4.19,3.57,5,3,2.34,2.58,8.61,5.33,11.36,5.63,5,14.55,6.23,19.23,11.74,4.61,5.09,5.2,13.06,8.89,18.49,3.91,5.75,13.06,8.2,16,13.94,2.74,5.23-1.18,13.27.81,18.27,2.2,5.53,10.7,8.7,12.11,13.84.69,2.76-1.42,5.76-.87,8.1s-2.59,5-2.18,7.17,6.93,3.22,7.14,5.56a8.39,8.39,0,0,1,1.09,2.74,21.56,21.56,0,0,0,.62,2.45c.21,1.79-7.17,4.33-7,6.13.14,1.38,0,3,.1,4.47s8.3,2.53,8.3,3.49c0,1.38-2,2.31-2,3.14.07,4.27.67,2.11-2.36,2.11s-1.75,2.21-1.75-2.06c-.07-.83,3.5-1.92,3.36-3.3,0-1-1.75-2.12-1.89-3.5s-3.56-2.87-3.76-4.25c-.21-1.79,4.28-4,4.07-5.75-.21-1-.12-2.07-.33-2.9-.21-1.1-.26-2-.39-2.64-.55-2.34-2.91-3.8-3.25-6.14-.62-1.79-.44-4.31-.92-6.65-.69-2.34-4.08-3.7-4.84-6-1.58-5-1.22-11.05-3.52-16.48-2.11-5-7.17-8.6-10-13.67-3.06-5.71-.18-15.51-4.13-21.07-3.77-5.31-11.23-8.25-15.79-13.29-4.81-5.37-8.56-12.35-14.19-17-2.82-2.21-6.41-3.94-9.36-6.15-1.58-1.1-5.44.78-6.88-.33-1.23-.91-2.48,1.39-3.78.58s.68-3.63-.48-4.33c-4.36-2.85-9.74-3.69-14.46-6.09s-8.89-5.17-13.81-7.13-9.26-4.83-14.31-6.41c-7.7-2.2-14.94-8-22.91-9.33-3-.39-3.1-.67-6.15-1-1.92-.41-4.42,4.47-6.49,4.47-3.92-.69-8.18-4.54-12.16-4.54-8.11,0-15.91,6-23.88,6.86-8.11,1.52-15.52,3.59-23.15,5.8-5,1.66-8.89,5.06-13.61,7.11s-10.13,2.46-14.64,4.9-11.59.89-15.85,3.71c-1.13.69,1.45,4.71.36,5.46s.61,3.17-.57,4.06c-1.58,1-6.27-1.9-7.78-.94-2.89,2.34-2.36,8.57-5.18,10.77-5.43,5.1-11.2,8.69-15.87,13.79-4.36,5.11-8.6,9.69-12.19,14.93-3.75,5.49-10.22,9.17-13.07,14.94-2.62,4.92-.82,11.71-2.75,16.61C105.8,196,98,199.2,96.61,204c-.62,2.21,6.2,6.51,5.58,8.85-.41,1.93-.45,4-.93,6.32-.27,1.79-2.12,3.31-2.39,5.52-.14.83-7.33.74-7.54,1.57s6.49,3,6.49,3.51c-.21,1.65,1.12,3.63.91,5,0,1.52-1.7,3-1.7,4.53-.14,1-2.74,2.06-2.74,3-.07,1.38,3.29,2.38,3.22,3.21,0,4.27-.39,8.68-3.39,9.06C88.5,255.34,88.3,250.48,82.64,249.33ZM220.4,167.58c-5.53,2.32-10.92,3-15.84,6.33s-4.72,13-8.92,17.28-10,6.67-13.27,11.65-8.62,9-10.91,14.56,1.93,12.77.76,18.69c-1.14,5.77-4,10.9-4,17,0,7.72-2.38,13.83-.52,20.72-7.28-1-11.72-1.52-18.86,1.78-1.92-8.27-1.34-13.82-1.34-22.5,0-5.93-2.3-11.72-1.42-17.41s1.52-11.71,3.28-17.22,3.1-11.55,5.69-16.74,8.71-8.35,12.07-13.09,8.09-7.87,12.14-12.05,5-11.63,9.67-15.15,8.56-8.91,13.71-11.67,12-.83,17.59-2.76a24.26,24.26,0,0,0-.53,6.89C219.75,158.86,218.55,162.76,220.4,167.58ZM148.47,287.32c5.1-2.92,9.55-2.43,15.09-2.41s13.18-5.64,18.12-2.79c4.77,2.75,7.74,9.62,10.7,14.78s1.57,11.15,1.58,16.65c0,5.71,4.12,13.42,1.31,18.32s-9.46,8.43-14.62,11.31c-5.14,3-11.69.87-17.2.87-5.71,0-9.7-2.38-14.64-5.28A27,27,0,0,1,137.92,328c-3-5.06-6.72-9.13-6.67-14.67s.9-11.49,3.78-16.43C137.8,292.18,143.36,290.28,148.47,287.32Zm52.73,39.3c5.35,4.43,8.77,9.52,15,12.54s15.25-1.9,22.09-.38c6.64,1.48,12.73,5.09,19.8,5.09,6.56,0,13.34,2.09,19.49.81,6.36-1.33,10.36-9.09,16.15-11.67s13.9-3.75,19.07-7.54c2.13,7,3.55,15.38,9.53,20.48-4.78,3.42-9.35,3.31-14.62,6a107.38,107.38,0,0,1-15.79,6.74c-5.55,1.8-10.39,5.79-16.28,6.72-5.73.9-11.56,2.12-17.55,2.12-6.36,0-12.84.49-18.91-.51-6.24-1-11.38-6.08-17.23-8.08s-10.57-5.88-16-8.86-13.69-3.24-18.59-7.11C193.12,337.71,199.14,333.65,201.2,326.62ZM228,153.9c0-5.94,2.65-9.61,5.4-14.44,2.84-5,1.65-14.34,6.55-17.25s12.27-2.07,18.19-2.07,10.52,4.16,15.31,7,13.67,3.31,16.51,8.3c2.76,4.84,2.58,12.53,2.58,18.48s-5.17,10.47-7.95,15.22-6.89,7.13-11.84,9.95a26.82,26.82,0,0,1-14.61,4c-5.88,0-11.27,1.24-16-1.48-4.93-2.82-9.59-6.4-12.45-11.3S228,159.81,228,153.9Zm68.06-5.7c5.54,1.92,8.86,5.41,14,8.15s14.16-.51,18.8,3,7.35,9.83,11.4,14,5.58,10.4,9,15.18,11.72,6.74,14.34,12,2.84,11.91,4.62,17.51-.64,12.08.26,17.91,0,11.22,0,17.15a112.9,112.9,0,0,1-.66,14.21c-.61,4.92,1.44,9.84.22,14.45-6.8-3.58-14.65-4.55-21.73-4.55,2.06-7.3,2.12-15.84,2.12-24.11,0-6.08,3-12.45,1.86-18.21-1.17-5.93-1.51-12.69-3.77-18.15S336.87,208,333.58,203s-8.67-7.74-12.86-12-5.64-11.5-10.58-14.85-11-5.18-16.49-7.5c1.93-4.82,6-9.87,6-14.83C299.63,151,296.64,150.53,296,148.19ZM322.69,300.8c2.94-5.17,7-7,11.79-9.72,4.93-2.85,8.61-11.47,14.3-11.48,5.53,0,11.56,4.44,16.67,7.35s7,8.88,9.73,13.7,10.25,9.61,10.27,15.33c0,5.55-3.94,12.14-6.89,17.29s-9.75,6.41-14.57,9.15-9.58,2.75-15.27,2.72A26.11,26.11,0,0,1,334,341.25c-5.11-2.88-10.4-4.52-13.15-9.32s-5-10.38-5-16.08C315.87,310.35,319.73,305.91,322.69,300.8ZM427.4,269.57c0,1.38-1.85,2.52-2,3.76-.07,1.52,7.28,3.32,7.28,5.25s-3.42,3.13-3.69,5.47c-.07.41-3,1.41-3.11,2.37s5.62,2.54,5.42,3.5c-.27,2.34-3.05,4-3.47,6.37S423,300,422.5,302.36s-2.56,4.18-3.25,6.39c-1.64,5.29-3.31,10.62-5.67,16.25-2.19,5.23-2.17,11.57-5.08,16.81-3.16,5.76-6.16,12-10.29,17.83-3.88,5.43-7.48,11.53-12.27,16.66-4.88,5.51-12.69,8-18.67,12.95-2.75,2.76-6.94,3.34-9.89,6.23-1.65.83-.19,5.5-1.77,7-1.15,1,.1,3-1.14,3.87s-3.84-3.16-5.06-2.39c-4.53,2.94-8.57,6.76-13.44,9.25S325,415,319.91,417s-9.91,3.67-15.17,5.21c-7.77,2.34-15.85,2.21-24.1,3.58-8.31,1-16.08,3.11-24.54,3.11-4.19,0-7.77-1-12-1.42a32.39,32.39,0,0,0-6.29-.59c-3.11-.42-3.12.33-6.22-.18-8.18-1.24-17,.34-24.85-2.42-5.18-1.46-11.71,0-16.66-2a162.89,162.89,0,0,1-14.85-7.34c-4.75-2.61-7.36-9.09-11.78-12.05-1.15-.71-1.09-.78-2.21-1.53s.85-3.83-.39-4.7c-1.58-.83-6.31,2.06-8,.82-3-2.48-7-3.6-9.74-5.81-5.7-5-9.52-12-14.19-17.56-4.49-5.29-4.38-13.66-8.06-19-4-5.75-12.1-8.48-15.1-14.13-2.7-5.28-1-12.22-3-17.24-2.23-5.6-10.37-8.93-11.82-14-.62-2.76,5.26-6.57,4.78-8.91s-7.89-3.17-8.3-5c-.48-2.21,2.2-4.84,1.79-7.32-.07-.69,3.31-2.11,3.25-3.07s-6.5-1.12-6.64-2.08c-.14-1.79-1-3.81-1.08-5-.14-1.93-.46-3.59-.53-5s7.37-2.93,7.37-3.89a21.1,21.1,0,0,1,.1-3.1c0-4.13-6.78-10.47-3.76-10.47s2.49,6.28,2.63,10.41c0,1-6.24,2.34-6.11,3.72.07,1,5.78,1.73,5.78,3.11.21,1.38-3.34,3.3-3,5.23.14,1.24,1.94,2.93,2.15,4.72.14,1,3.66,1.3,3.87,2.12s-4.42,2.95-4.21,3.64c.48,1.93.52,4.45,1.06,6.1.48,2.34,1,4.77,1.48,7s3.45,4.06,4.14,6.54c1.58,5,2.8,10.6,5.1,16,2.11,5,7.11,8.7,9.9,13.77,3,5.69,4.44,12.41,8.45,17.94,3.75,5.18,10.11,8.26,14.67,13.39,4.81,5,4.7,15.75,10.48,20.85,2.75,2.21,8.39,1.39,11.34,3.73,1.51,1.1,1.72,3.82,3.23,5.2,1.14.84,1.82.1,3,.88s3.3-2.38,4.52-1.58c4.39,2.81,10,2.88,14.71,5.26s7.73,7.7,12.66,9.66,10.32,1.77,15.39,3.34a177,177,0,0,0,22.91,5.82c3,.42,2.89,1.31,5.93,1.68,2,.55,3.65,5,5.64,5,3.92.41,8.59,1,12.57,1,8.11-.41,16-5.87,24-7.24s16.93.93,24.55-1.83c7.49-2.24,13-9.67,19.9-12.94a157.81,157.81,0,0,0,19.75-11.53c1.24-.87,0-2.42,1.27-3.32s2.4.93,3.52.1c1.58-1.38,6.24,1.64,7.68.81,2.82-2.89,2.46-8.44,5.14-11.2,5.5-4.68,8.27-11.44,12.87-16.4,4.31-5.15,12.27-6.92,15.8-12.1,3.84-5.64,2.71-13.69,5.58-19.14,2.61-5.1,6.21-9.11,8.11-14,2.11-5.45,4.28-10.37,5.69-15.3.76-2.2,4.94-3.45,5.43-5.79s-3.31-5-2.9-7.36c.41-1.93,6.91-2.9,7.39-4.55.14-1-7.43-3.23-7.22-4.06,0-1-.13-1.91-.13-2.87.27-1.79,1.88-3,2-4.49.14-1.79,7.42-2.81,7.49-4,0-1.52-6.64-2.44-6.64-4,0-.83-1.59-2.48-1.59-3.3.14-3.72,1.06-8.28,4-8.78,5.66-1,6.47,1.52,12,2.86,2.94.71,3.54,2.85,3.54,6.57C433.46,267.39,427.47,268.19,427.4,269.57Z" fill="none" stroke="#000" stroke-linecap="round" stroke-linejoin="round" stroke-width="6.59"/></g></g></g></svg>